<svg xmlns="http://www.w3.org/2000/svg" viewBox="0 0 128 128" role="img" aria-label="Crazed lab experiment enemy">
  <defs>
    <radialGradient id="experimentGlow" cx="50%" cy="50%" r="50%">
      <stop offset="0" stop-color="#74f2a3" stop-opacity=".36"/>
      <stop offset="1" stop-color="#74f2a3" stop-opacity="0"/>
    </radialGradient>
  </defs>
  <circle cx="64" cy="64" r="58" fill="url(#experimentGlow)"/>
  <path d="M31 65c0-23 17-40 39-37 21 3 34 18 31 40-3 25-20 39-43 35-18-3-27-18-27-38z" fill="#285d44" stroke="#193126" stroke-width="6"/>
  <circle cx="48" cy="48" r="16" fill="#74f2a3"/>
  <circle cx="73" cy="43" r="19" fill="#74f2a3"/>
  <circle cx="64" cy="69" r="24" fill="#5fce85"/>
  <circle cx="54" cy="55" r="5" fill="#0b1710"/>
  <circle cx="76" cy="55" r="5" fill="#0b1710"/>
  <path d="M52 78c8 6 18 6 26 0" stroke="#0b1710" stroke-width="4" stroke-linecap="round"/>
  <path d="M38 68 16 49M92 66l24-18M49 91l-18 23M79 91l18 23" stroke="#193126" stroke-width="8" stroke-linecap="round"/>
  <circle cx="16" cy="49" r="7" fill="#74f2a3"/>
  <circle cx="116" cy="48" r="7" fill="#74f2a3"/>
  <circle cx="31" cy="114" r="7" fill="#74f2a3"/>
  <circle cx="97" cy="114" r="7" fill="#74f2a3"/>
  <path d="M45 73 64 61l20 18M57 88l16-19" stroke="#193126" stroke-width="3" stroke-linecap="round" opacity=".8"/>
  <path d="M25 34c14-16 35-23 59-14" stroke="#d6ffe4" stroke-opacity=".65" stroke-width="4" stroke-linecap="round"/>
</svg>
