<svg xmlns="http://www.w3.org/2000/svg" viewBox="0 0 320 96" role="img" aria-label="Wooden library bookshelf full of books">
  <rect x="4" y="8" width="312" height="80" rx="8" fill="#4b321f"/>
  <rect x="18" y="18" width="284" height="60" rx="4" fill="#21151a"/>
  <rect x="4" y="8" width="312" height="10" fill="#8a6338"/>
  <rect x="4" y="78" width="312" height="10" fill="#8a6338"/>
  <rect x="4" y="8" width="14" height="80" fill="#8a6338"/>
  <rect x="302" y="8" width="14" height="80" fill="#8a6338"/>
  <rect x="18" y="47" width="284" height="8" fill="#9b7447"/>
  <g>
    <rect x="28" y="24" width="12" height="20" fill="#b84f5f"/>
    <rect x="44" y="20" width="10" height="24" fill="#d0a64b"/>
    <rect x="58" y="27" width="14" height="17" fill="#4f87a8"/>
    <rect x="76" y="22" width="11" height="22" fill="#6f5aa8"/>
    <rect x="91" y="25" width="13" height="19" fill="#5f9b68"/>
    <rect x="108" y="21" width="12" height="23" fill="#c46f3f"/>
    <rect x="124" y="24" width="10" height="20" fill="#b84f5f"/>
    <rect x="138" y="20" width="14" height="24" fill="#d0a64b"/>
    <rect x="156" y="28" width="11" height="16" fill="#4f87a8"/>
    <rect x="171" y="22" width="13" height="22" fill="#6f5aa8"/>
    <rect x="188" y="24" width="12" height="20" fill="#5f9b68"/>
    <rect x="204" y="20" width="14" height="24" fill="#c46f3f"/>
    <rect x="222" y="27" width="11" height="17" fill="#b84f5f"/>
    <rect x="237" y="22" width="13" height="22" fill="#d0a64b"/>
    <rect x="254" y="24" width="10" height="20" fill="#4f87a8"/>
    <rect x="268" y="20" width="14" height="24" fill="#6f5aa8"/>
  </g>
  <g>
    <rect x="28" y="60" width="13" height="16" fill="#6f5aa8"/>
    <rect x="45" y="56" width="11" height="20" fill="#5f9b68"/>
    <rect x="60" y="58" width="14" height="18" fill="#c46f3f"/>
    <rect x="78" y="54" width="10" height="22" fill="#b84f5f"/>
    <rect x="92" y="60" width="13" height="16" fill="#d0a64b"/>
    <rect x="109" y="56" width="12" height="20" fill="#4f87a8"/>
    <rect x="125" y="58" width="13" height="18" fill="#6f5aa8"/>
    <rect x="142" y="54" width="11" height="22" fill="#5f9b68"/>
    <rect x="157" y="60" width="14" height="16" fill="#c46f3f"/>
    <rect x="175" y="56" width="10" height="20" fill="#b84f5f"/>
    <rect x="189" y="58" width="13" height="18" fill="#d0a64b"/>
    <rect x="206" y="54" width="12" height="22" fill="#4f87a8"/>
    <rect x="222" y="60" width="14" height="16" fill="#6f5aa8"/>
    <rect x="240" y="56" width="10" height="20" fill="#5f9b68"/>
    <rect x="254" y="58" width="13" height="18" fill="#c46f3f"/>
    <rect x="271" y="54" width="12" height="22" fill="#b84f5f"/>
  </g>
  <g opacity=".35" fill="#fff4b8">
    <rect x="31" y="27" width="3" height="14"/>
    <rect x="62" y="30" width="3" height="11"/>
    <rect x="112" y="24" width="3" height="16"/>
    <rect x="193" y="27" width="3" height="14"/>
    <rect x="273" y="24" width="3" height="16"/>
    <rect x="49" y="59" width="3" height="13"/>
    <rect x="146" y="57" width="3" height="15"/>
    <rect x="210" y="57" width="3" height="15"/>
    <rect x="275" y="57" width="3" height="15"/>
  </g>
  <rect x="8" y="82" width="304" height="6" fill="#05060a" opacity=".3"/>
  <rect x="4" y="8" width="312" height="80" rx="8" fill="none" stroke="#f6f0df" stroke-opacity=".2" stroke-width="3"/>
</svg>
